# xmcd
#
# Track frame offsets:
#	150
#	16418
#	33683
#	51950
#	64665
#	81546
#	93437
#	105171
#	121573
#	129213
#	141770
#	163133
#	166673
#
# Disc length: 2422 seconds
# Revision: 0
# Processed by: cddbd v1.5.2PL0 Copyright (c) Steve Scherf et al.
# Submitted via: dBpowerAMP V12.0
#
DISCID=a009740d
DTITLE=Austin Lounge Lizards - Employee of the Month [Sugar Hill] (s)
DYEAR=1998
DGENRE=Country
TTITLE0=Stupid Texas Song
TTITLE1=Hey, Little Minivan
TTITLE2=The Dogs, They Really Miss You
TTITLE3=Rocky Byways
TTITLE4=Last Words
TTITLE5=Monkey on My Back
TTITLE6=Flatnose, the Tree-Climbing Dog
TTITLE7=Love in a Refrigerator Box
TTITLE8=La Cacahuate
TTITLE9=Trailways of Tears
TTITLE10=Leonard Cohen's Day Job
TTITLE11=Momma Don't Allow
TTITLE12=The Other Shore
EXTD=
EXTT0=
EXTT1=
EXTT2=
EXTT3=
EXTT4=
EXTT5=
EXTT6=
EXTT7=
EXTT8=
EXTT9=
EXTT10=
EXTT11=
EXTT12=
PLAYORDER=
